<!-- Generator: Adobe Illustrator 20.1.0, SVG Export Plug-In  -->
<svg version="1.1"
	 xmlns="http://www.w3.org/2000/svg" xmlns:xlink="http://www.w3.org/1999/xlink" xmlns:a="http://ns.adobe.com/AdobeSVGViewerExtensions/3.0/"
	 x="0px" y="0px" width="299.432px" height="296px" viewBox="0 0 299.432 296"
	 style="overflow:scroll;enable-background:new 0 0 299.432 296;" xml:space="preserve">
<style type="text/css">
	.st0{fill:#FFFFFF;}
</style>
<defs>
</defs>
<path d="M151,296c-5.108-2.318-10.221-4.626-15.323-6.957c-49.174-22.467-88.582-55.844-114.111-104.037
	c-6.644-12.542-12.015-26.067-15.68-39.754c-1.986-7.418-2.878-15.417-4.908-23.028C0.772,121.45,0.332,120.74,0,120c0-1,0-2,0-3
	c1.565-0.761,3.13-1.521,4.109-1.997c0.985-6.093-7.044-12.145,1.905-16.743c-0.627-2.204-1.006-4.347-1.836-6.297
	c-2.149-5.049-0.475-7.747,4.267-10.543C52.491,55.45,96.365,29.191,140.269,2.982C141.624,2.174,142.761,1.002,144,0
	c0.333,0,0.667,0,1,0c5.912,24.491,15.571,47.336,30.356,67.825c29.75,41.228,69.58,69.033,116.639,87.127
	c0.904,0.348,1.792,0.739,3.289,1.359c-5.668,3.419-10.849,6.544-16.822,10.147c5.466,2.157,10.142,4.001,15.004,5.92
	c-0.634,0.826-1.205,1.569-1.927,2.509c2.425,0.955,4.715,1.856,7.893,3.107c-4.609,2.817-8.697,5.315-13.438,8.213
	c2.397,0.921,4.027,1.548,6.007,2.309c-0.542,0.773-1.038,1.479-1.871,2.666c2.406,0.944,4.797,1.883,7.978,3.132
	c-5.651,3.412-10.772,6.504-16.823,10.158c5.418,2.169,10.043,4.021,15.307,6.128c-1.916,1.218-3.479,2.275-5.101,3.233
	c-44.667,26.381-89.341,52.75-134.004,79.138c-1.551,0.917-2.995,2.017-4.488,3.031C152.333,296,151.667,296,151,296z
	 M286.339,157.34C216.901,126.854,163.856,81.704,142.526,6.39c-0.559,0.197-1.069,0.287-1.485,0.535
	C97.176,33.042,53.306,59.15,9.529,85.414c-1.133,0.68-2.066,3.326-1.678,4.636c2.168,7.314,4.28,14.712,7.304,21.695
	c26.275,60.67,72.512,100.208,132.824,124.621c1.605,0.65,4.251,0.038,5.886-0.901c12.834-7.369,25.541-14.959,38.284-22.485
	C223.354,194.549,254.557,176.115,286.339,157.34z M6.045,118.89c-0.407,0.104-0.814,0.207-1.221,0.311
	c0,0.876-0.26,1.854,0.039,2.612c5.288,13.423,9.45,27.456,16.194,40.111c27.451,51.512,70.537,85.383,124.007,106.915
	c1.713,0.69,4.535,0.105,6.246-0.899c43.052-25.257,86.026-50.647,129.004-76.031c1.056-0.623,1.998-1.439,2.728-1.971
	c-6.469-5.715-12.186-3.866-18.825,0.126c-36.786,22.12-73.854,43.77-110.764,65.685c-2.85,1.692-5.209,1.948-8.215,0.522
	c-7.657-3.632-15.623-6.64-23.158-10.499C69.965,219.089,30.816,180.122,8.577,125.265C7.718,123.146,6.888,121.015,6.045,118.89z
	 M7.212,102.674c-0.473,0.097-0.945,0.194-1.418,0.291c0.29,1.537,0.342,3.168,0.908,4.595c4.891,12.339,8.84,25.188,15.007,36.86
	c27.26,51.589,69.996,85.793,123.321,107.77c3.155,1.3,5.41,0.964,8.23-0.711c32.612-19.369,65.298-38.614,97.963-57.894
	c11.157-6.585,22.309-13.179,33.654-19.881c-5.996-3.923-10.905-5.08-17.719-0.949c-37.268,22.595-74.956,44.498-112.44,66.738
	c-2.682,1.592-4.889,2.045-7.808,0.655c-6.598-3.142-13.475-5.707-20.022-8.944c-55.317-27.351-96.29-68.201-118.64-126.497
	C7.977,104.001,7.56,103.351,7.212,102.674z M287.742,211.654c-6.163-3.753-11.064-4.974-17.871-0.848
	c-37.273,22.596-74.934,44.553-112.548,66.583c-1.835,1.075-4.853,1.697-6.696,0.963c-59.394-23.668-105.433-62.579-135.619-119.45
	c-0.392-0.738-0.934-1.397-1.407-2.093c-0.355,0.19-0.709,0.381-1.064,0.571c4.3,9.113,8.135,18.482,12.976,27.298
	c27.631,50.316,69.777,83.917,122.251,105.555c3.134,1.292,5.386,0.991,8.213-0.688c37.341-22.165,74.753-44.21,112.147-66.287
	C274.553,219.462,280.975,215.657,287.742,211.654z M149.989,273.235c0.231,0.654,0.462,1.309,0.692,1.963
	c2.112-0.614,4.463-0.821,6.301-1.901c42.844-25.182,85.634-50.456,128.425-75.728c1.156-0.683,2.218-1.526,3.324-2.295
	c-0.237-0.566-0.474-1.132-0.711-1.699c-2.245,0.706-4.723,1.015-6.7,2.177c-36.834,21.63-73.609,43.36-110.393,65.074
	C163.94,264.95,156.968,269.098,149.989,273.235z M291.056,178.899c-6.683-2.887-9.236,1.685-13.998,3.791
	C283.528,185.499,286.125,180.768,291.056,178.899z"/>
<path class="st0" d="M286.339,157.34c-31.782,18.775-62.986,37.209-94.191,55.641c-12.743,7.527-25.45,15.116-38.284,22.485
	c-1.635,0.939-4.281,1.55-5.886,0.901C87.667,211.954,41.43,172.415,15.155,111.745c-3.024-6.983-5.136-14.381-7.304-21.695
	c-0.388-1.31,0.545-3.956,1.678-4.636C53.306,59.15,97.176,33.042,141.042,6.925c0.416-0.248,0.926-0.338,1.485-0.535
	C163.856,81.704,216.901,126.854,286.339,157.34z M121.07,187.886c11.36-6.48,22.739-12.972,34.118-19.462
	c14.276-8.142,28.557-16.274,42.823-24.432c1.942-1.11,4.791-2.043,1.381-5.017c-2.418,1.357-4.873,2.717-7.31,4.108
	c-23.213,13.246-46.425,26.493-69.631,39.753C118.884,184.873,118.901,184.902,121.07,187.886z M127.807,53.962
	c-0.457-0.234-0.913-0.468-1.37-0.702C99.646,68.535,72.855,83.81,46.064,99.085c0.013,0.552,0.026,1.104,0.039,1.656
	c1.28,0.138,2.88,0.846,3.792,0.332C75.336,86.721,100.72,72.27,126.036,57.7C127.018,57.134,127.234,55.238,127.807,53.962z
	 M176.479,121.215c-26.986,15.387-53.775,30.662-80.565,45.937c0.087,0.562,0.174,1.123,0.261,1.685
	c1.448,0,3.161,0.508,4.297-0.087c5.145-2.692,10.119-5.708,15.168-8.585c19.761-11.258,39.531-22.5,59.282-33.774
	C176.791,125.324,179.85,124.565,176.479,121.215z M157.918,102.758c-0.057-0.703-0.114-1.406-0.172-2.109
	c-1.459,0.141-3.158-0.155-4.339,0.493c-8.153,4.477-16.197,9.152-24.277,13.762c-17.73,10.115-35.461,20.229-53.152,30.32
	c0.555,3.931,2.448,2.942,4.536,1.743c8.211-4.713,16.451-9.375,24.672-14.07C122.766,122.855,140.341,112.805,157.918,102.758z
	 M57.359,125.953c0.458,0.282,0.916,0.563,1.373,0.845c26.827-15.298,53.653-30.596,80.48-45.894
	c-0.091-0.637-0.183-1.274-0.274-1.911c-1.294,0-2.86-0.483-3.841,0.071c-25.339,14.316-50.63,28.717-75.856,43.232
	C58.243,122.87,57.97,124.705,57.359,125.953z M226.46,155.209c-26.974,15.387-53.759,30.667-80.544,45.946
	c0.085,0.638,0.17,1.275,0.255,1.913c1.297,0,2.811,0.437,3.852-0.079c3.562-1.769,6.955-3.877,10.417-5.849
	c21.489-12.246,42.985-24.481,64.46-36.751C226.742,159.335,229.859,158.586,226.46,155.209z"/>
<path class="st0" d="M6.045,118.89c0.843,2.125,1.673,4.256,2.532,6.375c22.239,54.857,61.389,93.824,113.502,120.509
	c7.535,3.858,15.501,6.866,23.158,10.499c3.007,1.426,5.366,1.17,8.215-0.522c36.909-21.915,73.978-43.565,110.764-65.685
	c6.639-3.992,12.356-5.842,18.825-0.126c-0.73,0.532-1.672,1.347-2.728,1.971c-42.978,25.384-85.952,50.774-129.004,76.031
	c-1.711,1.004-4.533,1.589-6.246,0.899c-53.47-21.532-96.556-55.403-124.007-106.915c-6.744-12.655-10.906-26.688-16.194-40.111
	c-0.299-0.758-0.039-1.737-0.039-2.612C5.231,119.098,5.638,118.994,6.045,118.89z"/>
<path class="st0" d="M7.212,102.674c0.349,0.677,0.765,1.327,1.036,2.033c22.35,58.296,63.323,99.145,118.64,126.497
	c6.547,3.237,13.424,5.802,20.022,8.944c2.919,1.39,5.126,0.936,7.808-0.655c37.485-22.24,75.172-44.142,112.44-66.738
	c6.813-4.131,11.723-2.975,17.719,0.949c-11.345,6.702-22.497,13.295-33.654,19.881c-32.665,19.281-65.35,38.525-97.963,57.894
	c-2.82,1.675-5.075,2.012-8.23,0.711c-53.326-21.977-96.061-56.181-123.321-107.77c-6.168-11.673-10.117-24.521-15.007-36.86
	c-0.566-1.427-0.618-3.059-0.908-4.595C6.266,102.868,6.739,102.771,7.212,102.674z"/>
<path class="st0" d="M287.742,211.654c-6.767,4.003-13.189,7.809-19.617,11.604c-37.393,22.077-74.806,44.122-112.147,66.287
	c-2.828,1.679-5.08,1.98-8.213,0.688c-52.474-21.638-94.62-55.24-122.251-105.555c-4.841-8.816-8.676-18.185-12.976-27.298
	c0.355-0.19,0.709-0.381,1.064-0.571c0.472,0.696,1.015,1.355,1.407,2.093c30.186,56.872,76.226,95.782,135.619,119.45
	c1.843,0.734,4.861,0.112,6.696-0.963c37.614-22.029,75.275-43.987,112.548-66.583C276.678,206.679,281.579,207.9,287.742,211.654z"
	/>
<path class="st0" d="M149.989,273.235c6.979-4.137,13.951-8.285,20.937-12.409c36.784-21.714,73.56-43.444,110.393-65.074
	c1.978-1.161,4.455-1.471,6.7-2.177c0.237,0.566,0.474,1.132,0.711,1.699c-1.106,0.768-2.168,1.612-3.324,2.295
	c-42.791,25.272-85.581,50.546-128.425,75.728c-1.838,1.08-4.189,1.287-6.301,1.901C150.451,274.544,150.22,273.889,149.989,273.235
	z"/>
<path class="st0" d="M291.056,178.899c-4.93,1.869-7.528,6.6-13.998,3.791C281.819,180.584,284.372,176.013,291.056,178.899z"/>
<path d="M121.07,187.886c-2.169-2.984-2.186-3.013,1.381-5.051c23.205-13.259,46.418-26.506,69.631-39.753
	c2.437-1.391,4.893-2.75,7.31-4.108c3.41,2.974,0.56,3.907-1.381,5.017c-14.266,8.159-28.547,16.291-42.823,24.432
	C143.809,174.914,132.431,181.406,121.07,187.886z"/>
<path d="M127.807,53.962c-0.573,1.276-0.789,3.172-1.771,3.738c-25.316,14.57-50.701,29.022-76.141,43.374
	c-0.911,0.514-2.512-0.194-3.792-0.332c-0.013-0.552-0.026-1.104-0.039-1.656c26.791-15.275,53.582-30.55,80.374-45.825
	C126.894,53.494,127.351,53.728,127.807,53.962z"/>
<path d="M176.479,121.215c3.371,3.35,0.312,4.109-1.555,5.175c-19.751,11.274-39.522,22.516-59.282,33.774
	c-5.049,2.877-10.024,5.893-15.168,8.585c-1.136,0.595-2.85,0.087-4.297,0.087c-0.087-0.562-0.174-1.123-0.261-1.685
	C122.703,151.877,149.493,136.602,176.479,121.215z"/>
<path d="M157.918,102.758c-17.577,10.047-35.152,20.097-52.732,30.139c-8.221,4.696-16.461,9.357-24.672,14.07
	c-2.088,1.199-3.981,2.187-4.536-1.743c17.691-10.092,35.422-20.205,53.152-30.32c8.08-4.61,16.124-9.285,24.277-13.762
	c1.18-0.648,2.88-0.352,4.339-0.493C157.803,101.352,157.86,102.055,157.918,102.758z"/>
<path d="M57.359,125.953c0.611-1.248,0.884-3.083,1.882-3.658c25.226-14.515,50.517-28.916,75.856-43.232
	c0.981-0.554,2.547-0.071,3.841-0.071c0.091,0.637,0.183,1.274,0.274,1.911c-26.827,15.298-53.653,30.596-80.48,45.894
	C58.275,126.516,57.817,126.235,57.359,125.953z"/>
<path d="M226.46,155.209c3.399,3.377,0.282,4.126-1.56,5.178c-21.475,12.271-42.971,24.505-64.46,36.751
	c-3.461,1.972-6.855,4.08-10.417,5.849c-1.04,0.517-2.555,0.079-3.852,0.079c-0.085-0.638-0.17-1.275-0.255-1.913
	C172.701,185.876,199.486,170.597,226.46,155.209z"/>
</svg>